<svg width="422" height="369" viewBox="0 0 422 369" fill="none" xmlns="http://www.w3.org/2000/svg">
<path d="M74.3898 177.846L83.0996 182.876C86.2524 184.697 87.8349 187.095 87.8226 189.481L87.8839 169.924C87.8839 167.538 86.3137 165.14 83.161 163.319L74.4511 158.289C71.2984 156.468 69.7159 154.07 69.7281 151.684L69.6668 171.241C69.6668 173.627 71.237 176.025 74.3898 177.846ZM391.503 191.154L394.496 189.42C397.6 187.612 399.146 185.263 399.158 182.901L399.219 163.344C399.219 165.706 397.661 168.067 394.558 169.863L391.564 171.597C388.473 173.393 386.915 175.755 386.915 178.116L386.854 197.673C386.854 195.312 388.412 192.962 391.503 191.154ZM390.509 228.386L400.532 222.556C403.623 220.76 405.181 218.399 405.181 216.037L405.243 196.48C405.243 198.842 403.685 201.203 400.593 202.999L390.571 208.829C387.467 210.637 385.921 212.987 385.909 215.348L385.848 234.905C385.848 232.544 387.406 230.182 390.509 228.386ZM20.5112 245.619L34.7169 253.835C37.8696 255.655 39.4521 258.054 39.4398 260.452L39.5012 240.896C39.5012 238.497 37.9309 236.111 34.7782 234.278L20.5725 226.062C17.4198 224.241 15.8373 221.843 15.8495 219.444L15.7882 239.001C15.7882 241.4 17.3584 243.786 20.5112 245.619ZM417.338 250.489L251.949 346.7C245.717 350.329 235.572 350.329 229.291 346.7L225.623 344.572C219.342 340.944 209.197 340.944 202.965 344.572C196.733 348.201 186.588 348.201 180.319 344.572L144.057 323.613C137.776 319.984 127.643 319.997 121.411 323.613L113.842 328.016C107.61 331.645 97.4648 331.645 91.1839 328.016L4.7843 278.091C1.63157 276.27 0.0490698 273.872 0.0613372 271.486L0 291.055C0 293.441 1.57023 295.84 4.72296 297.66L91.1348 347.61C97.4158 351.239 107.561 351.239 113.793 347.61L121.362 343.207C127.594 339.578 137.739 339.578 144.007 343.207L180.27 364.166C186.551 367.795 196.696 367.795 202.916 364.166C209.148 360.538 219.293 360.538 225.574 364.166L229.242 366.294C235.523 369.922 245.668 369.922 251.9 366.294L417.289 270.083C420.381 268.288 421.939 265.926 421.939 263.564L422 244.007C422 246.369 420.442 248.731 417.351 250.526L417.338 250.489Z" fill="#845E40"/>
<path d="M74.3898 177.846L83.0996 182.876C86.2524 184.697 87.8349 187.095 87.8226 189.481L87.8839 169.924C87.8839 167.538 86.3137 165.14 83.161 163.319L74.4511 158.289C71.2984 156.468 69.7159 154.07 69.7281 151.684L69.6668 171.241C69.6668 173.627 71.237 176.025 74.3898 177.846ZM391.503 191.154L394.496 189.42C397.6 187.612 399.146 185.263 399.158 182.901L399.219 163.344C399.219 165.706 397.661 168.067 394.558 169.863L391.564 171.597C388.473 173.393 386.915 175.755 386.915 178.116L386.854 197.673C386.854 195.312 388.412 192.962 391.503 191.154ZM390.509 228.386L400.532 222.556C403.623 220.76 405.181 218.399 405.181 216.037L405.243 196.48C405.243 198.842 403.685 201.203 400.593 202.999L390.571 208.829C387.467 210.637 385.921 212.987 385.909 215.348L385.848 234.905C385.848 232.544 387.406 230.182 390.509 228.386ZM20.5112 245.619L34.7169 253.835C37.8696 255.655 39.4521 258.054 39.4398 260.452L39.5012 240.896C39.5012 238.497 37.9309 236.111 34.7782 234.278L20.5725 226.062C17.4198 224.241 15.8373 221.843 15.8495 219.444L15.7882 239.001C15.7882 241.4 17.3584 243.786 20.5112 245.619ZM417.338 250.489L251.949 346.7C245.717 350.329 235.572 350.329 229.291 346.7L225.623 344.572C219.342 340.944 209.197 340.944 202.965 344.572C196.733 348.201 186.588 348.201 180.319 344.572L144.057 323.613C137.776 319.984 127.643 319.997 121.411 323.613L113.842 328.016C107.61 331.645 97.4648 331.645 91.1839 328.016L4.7843 278.091C1.63157 276.27 0.0490698 273.872 0.0613372 271.486L0 291.055C0 293.441 1.57023 295.84 4.72296 297.66L91.1348 347.61C97.4158 351.239 107.561 351.239 113.793 347.61L121.362 343.207C127.594 339.578 137.739 339.578 144.007 343.207L180.27 364.166C186.551 367.795 196.696 367.795 202.916 364.166C209.148 360.538 219.293 360.538 225.574 364.166L229.242 366.294C235.523 369.922 245.668 369.922 251.9 366.294L417.289 270.083C420.381 268.288 421.939 265.926 421.939 263.564L422 244.007C422 246.369 420.442 248.731 417.351 250.526L417.338 250.489Z" fill="#996E52"/>
<path d="M394.472 156.726C400.753 160.354 400.777 166.234 394.533 169.862L391.54 171.596C385.308 175.225 385.345 181.104 391.626 184.733L400.507 189.862C406.788 193.49 406.813 199.37 400.581 202.998L390.559 208.829C384.327 212.457 384.351 218.336 390.62 221.965L417.252 237.365C423.533 240.993 423.558 246.872 417.326 250.501L251.936 346.712C245.705 350.34 235.559 350.34 229.278 346.712L225.61 344.584C219.33 340.955 209.184 340.955 202.953 344.584C196.721 348.212 186.575 348.212 180.307 344.584L144.044 323.624C137.763 319.996 127.63 320.008 121.399 323.624L113.83 328.028C107.598 331.656 97.4525 331.656 91.1716 328.028L4.78426 278.09C-1.49667 274.461 -1.5212 268.582 4.72292 264.953L34.864 247.414C41.0959 243.785 41.0714 237.906 34.7904 234.277L20.5847 226.061C14.3038 222.432 14.2793 216.553 20.5111 212.924L83.2223 176.443C89.4541 172.814 89.4296 166.935 83.1609 163.306L74.4511 158.276C68.1824 154.647 68.1456 148.78 74.3775 145.151L121.914 117.489C128.146 113.86 138.291 113.86 144.547 117.489L153.257 122.519C159.538 126.148 169.671 126.148 175.903 122.519L185.889 116.714C192.12 113.085 202.266 113.085 208.546 116.714L227.181 127.489C233.462 131.117 243.595 131.117 249.826 127.489L285.414 106.788C291.646 103.159 301.791 103.159 308.072 106.788L394.484 156.738L394.472 156.726Z" fill="#6AD877"/>
<path d="M129.703 321.078C126.66 321.41 123.765 322.271 121.41 323.637L113.841 328.04C111.252 329.541 107.989 330.414 104.604 330.672V350.229C107.965 349.971 111.216 349.098 113.792 347.597L121.361 343.193C123.728 341.816 126.648 340.967 129.703 340.635V321.078Z" fill="#845E40"/>
<path d="M241.828 368.96C245.508 368.8 249.103 367.902 251.9 366.279L417.289 270.068C420.381 268.272 421.939 265.911 421.939 263.549L422 243.992C422 246.354 420.442 248.715 417.351 250.511L251.961 346.722C249.14 348.358 245.521 349.256 241.828 349.415V368.973V368.96Z" fill="#845E40"/>
<path d="M195.015 366.65C197.923 366.281 200.683 365.457 202.928 364.153C205.222 362.824 208.043 361.976 211 361.631V342.074C208.055 342.431 205.259 343.267 202.977 344.596C200.72 345.912 197.935 346.748 195.003 347.105V366.662L195.015 366.65Z" fill="#845E40"/>
<g style="mix-blend-mode:multiply" opacity="0.5">
<path d="M277.392 129.739C267.97 136.024 267.099 143.49 278.888 149.001C290.69 154.511 306.331 167.143 317.617 166.688C328.903 166.233 354.726 152.359 334.165 140.674C313.605 129.001 294.86 118.079 277.379 129.727L277.392 129.739Z" fill="#D3B079"/>
</g>
<path d="M287.573 129.616C285.353 130.944 282.421 133.207 279.673 134.61C275.735 136.627 276.434 138.804 276.851 141.559C277.207 143.921 281.746 144.486 284.31 144.302C287.095 144.105 291.683 139.111 292.689 138.644C294.357 138.521 296.136 138.878 297.964 136.885C299.546 135.163 297.583 130.723 297.007 130.12C297.559 127.586 286.444 124.155 287.573 129.616Z" fill="#3F3F3F"/>
<path d="M330.841 134.192C331.27 135.668 334.19 138.46 334.767 139.629C336.202 140.785 336.729 140.601 337.882 141.991C339.575 144.045 339.49 145.152 338.005 146.689C336.447 148.3 334.938 148.669 334.938 148.669C334.938 148.669 333.528 155.324 332.473 156.48C329.847 159.346 327.124 160.551 322.892 160.871C318.856 161.166 316.28 158.067 316.23 156.8C316.108 154.131 317.028 152.335 319.506 151.166C322.205 149.899 324.266 146.812 324.511 145.275C324.511 145.275 322.352 142.765 320.45 139.715C318.475 136.529 329.492 129.543 330.829 134.168L330.841 134.192Z" fill="#3F3F3F"/>
<path d="M281.636 89.9731C282.912 86.7628 290.751 71.683 293.364 69.4075C294.959 64.5613 294.333 61.5232 295.854 59.5675C296.112 59.2477 311.753 69.9364 311.728 70.3792C311.495 76.8121 307.827 88.0051 297.179 96.0984C296.615 97.5622 298.933 100.465 299.485 106.074C300.025 111.658 299.326 122.224 297.866 129.825C297.609 131.178 288.567 133.933 286.789 129.579C282.421 118.903 280.765 92.1625 281.636 89.9731Z" fill="#DB7B1B"/>
<path d="M303.337 81.1297C301.558 77.1322 301.141 71.179 303.067 67.3168C303.214 67.0093 318.696 66.0745 318.683 66.0499C318.266 65.4595 321.554 66.6772 321.431 67.2922C328.473 76.345 326.277 87.9808 320.487 97.6732C321.897 98.7064 322.253 98.1898 321.1 100.478C323.946 103.43 324.584 112.064 327.111 118.903C327.737 120.6 328.534 122.618 329.074 124.536C329.871 127.39 335.232 137.636 334.754 139.641C333.466 145.09 329.454 146.615 324.498 145.299C321.37 144.475 316.058 132.052 314.61 128.374C312.071 121.929 312.083 119.038 307.888 111.277C304.993 105.926 301.484 103.466 301.742 98.6941C301.963 94.5613 303.3 85.1149 303.324 81.142L303.337 81.1297Z" fill="#F49020"/>
<path d="M322.414 66.9481L323.481 70.4413C323.481 70.4413 320.205 75.1645 310.097 73.9837C299.989 72.8029 299.412 69.1375 299.412 69.1375L301.252 65.6074L322.426 66.9481H322.414Z" fill="#DB7B1B"/>
<path d="M318.72 101.388C318.72 101.388 318.56 102.852 315.984 103.492C313.617 104.082 311.985 103.59 310.574 103.11C314.07 101.856 316.99 101.327 318.72 101.376V101.388Z" fill="#DB7B1B"/>
<path d="M317.114 99.8621C317.114 99.8621 316.218 98.054 314.292 97.5497C312.366 97.0577 311.017 97.685 311.017 97.685C311.017 97.685 315.482 99.7268 317.114 99.8498V99.8621Z" fill="#DB7B1B"/>
<path d="M282.274 29.4084C282.274 29.4084 284.004 35.7429 284.825 40.1463C285.181 39.642 289.095 31.9299 289.095 31.9299L295.854 36.6777C295.854 36.6777 295.032 39.0885 292.628 42.9753C291.413 44.9433 289.131 47.7354 285.635 50.4783C284.801 51.1302 282.433 50.6259 281.734 49.8387C280.471 48.4488 277.98 47.6247 277.195 41.5362C276.312 34.7097 277.33 29.8143 277.33 29.8143L282.286 29.4084H282.274Z" fill="#FFC9B6"/>
<path d="M298.504 41.2785C293.29 40.602 289.021 37.3056 285.672 33.3819C286.42 32.2626 288.126 30.024 288.886 29.3844C290.42 20.799 295.535 19.4337 298.222 20.4915C303.202 22.4472 304.515 27.6993 302.822 32.3241C301.939 34.7349 299.804 39.1014 298.504 41.2785Z" fill="#D1D1D1"/>
<path d="M295.057 63.4905C293.351 61.0797 293.535 51.4857 294.038 47.2791C291.646 40.5879 290.53 35.6064 291.474 29.9484C292.063 26.4183 294.885 22.1871 299.105 21.6213C301.166 21.3384 308.404 23.6754 309.79 24.3027C315.347 25.3974 318.806 27.7221 322.793 31.4613C323.284 31.9287 322.781 48.1524 322.119 51.2397C321.346 54.8436 322.388 60.1695 321.849 63.5151C322.511 66.6762 312.893 69.3576 310.011 69.6036C300.123 70.4646 297.473 67.9062 295.069 63.5028L295.057 63.4905Z" fill="#EFEFEF"/>
<path d="M318.487 58.7935C318.487 58.7935 316.316 60.2326 313.2 59.6791C310.084 59.1256 308.269 57.625 308.269 57.625C308.269 57.625 312.231 58.5475 313.973 58.732C315.727 58.9042 318.487 58.7935 318.487 58.7935Z" fill="#D1D1D1"/>
<path d="M313.384 25.2632C313.384 25.2632 313.212 28.5596 309.507 30.1955C303.901 32.6678 299.583 30.2693 298.221 27.305C296.859 24.3407 300.196 21.5117 300.196 21.5117C300.196 21.5117 307.544 21.7208 313.384 25.2509V25.2632Z" fill="#D1D1D1"/>
<path d="M321.958 62.4598L323.995 67.921C323.995 67.921 320.499 72.2383 314.23 70.75C308.059 73.6651 302.588 71.2666 299.227 68.7451C295.866 66.2236 292.418 65.8792 293.375 62.1154C292.897 59.2372 292.701 55.2643 292.885 51.2053C293.069 47.1463 293.105 36.4453 293.105 36.4453C293.105 36.4453 296.369 38.3764 300.49 39.1144C305.79 40.0615 308.612 39.9631 308.612 39.9631C308.612 39.9631 309.2 49.8646 310.697 54.0589C311.789 57.1216 312.733 63.1609 316.279 64.5877C319.812 66.0145 321.958 62.4598 321.958 62.4598Z" fill="#F49020"/>
<path d="M306.036 42.9271C306.036 42.9271 303.324 43.0501 299.423 42.2629C296.798 41.734 294.97 40.9591 294.97 40.9591C294.97 40.9591 294.455 44.2309 294.615 47.5396C294.713 49.5937 297.105 51.3649 299.742 51.7954C302.135 52.1767 305.729 51.3772 305.839 48.8557C306.011 44.7475 306.036 42.9271 306.036 42.9271Z" fill="#DB7B1B"/>
<path d="M315.175 26.0005C315.175 26.0005 312.538 27.7225 310.612 32.6794C308.919 37.0459 308.87 43.3189 308.87 43.3189L306.294 42.79C306.294 42.79 305.779 36.5785 308.244 31.7938C311.041 26.3572 311.9 24.9919 314.169 24.8074C315.433 24.6967 315.175 26.0128 315.175 26.0128V26.0005Z" fill="#F49020"/>
<path d="M302.025 21.9302C302.025 21.9302 299.388 23.6522 297.462 28.6091C295.769 32.9756 295.72 39.2486 295.72 39.2486L293.143 38.7197C293.143 38.7197 292.628 32.5082 295.094 27.7235C297.891 22.2869 298.75 20.9216 301.019 20.7371C302.283 20.6264 302.025 21.9425 302.025 21.9425V21.9302Z" fill="#F49020"/>
<path d="M300.049 19.9236C301.288 20.0712 303.373 20.2926 304.563 19.9482C306.146 19.5054 307.9 18.5583 309.139 17.2422C309.396 18.915 310.28 23.1462 311.187 24.7698C312.218 26.6271 308.133 28.9764 304.465 28.878C301.901 28.8165 299.472 26.787 299.398 25.8399C299.938 23.0355 299.877 21.2274 300.049 19.9236Z" fill="#FFB9A4"/>
<path d="M295.486 11.9292C295.658 9.57994 296.259 6.62794 298.123 5.00434C299.964 3.39304 303.043 3.33154 305.361 3.56524C308.956 3.93424 311.372 7.99324 310.587 12.5811C309.863 16.8246 306.821 23.2944 302.049 24.0447C299.62 24.426 297.804 22.5564 296.774 20.1948C295.547 17.4027 295.351 13.8726 295.486 11.9292Z" fill="#FFC9B6"/>
<path d="M295.645 6.76416C295.645 6.76416 293.584 7.95726 291.867 7.96956C289.573 7.99416 289.144 5.86626 289.144 5.86626C289.144 5.86626 291.891 4.83306 293.621 4.91916C295.339 5.01756 295.645 6.76416 295.645 6.76416Z" fill="#DB7B1B"/>
<path d="M311.851 13.4443C311.851 13.4443 312.133 13.5919 311.52 15.3631C310.906 17.1343 309.594 19.5943 309.594 19.5943C309.594 19.5943 308.465 18.9424 308.379 16.4947C308.293 14.047 309.017 12.694 309.017 12.694C309.017 12.694 306.588 13.3582 303.718 11.5378C300.859 9.70514 300.381 8.21684 300.381 8.21684C300.381 8.21684 298.541 11.3902 295.707 11.4763C292.873 11.5501 289.659 7.67564 292.407 6.50714C295.155 5.33864 301.681 5.70764 301.681 5.70764C301.681 5.70764 311.765 10.1971 311.851 13.4566V13.4443Z" fill="#3F3F3F"/>
<path d="M311.961 14.2056C309.41 9.53163 300.994 4.64853 295.094 5.49723C295.118 5.44803 295.143 5.38653 295.167 5.33733C297.903 0.146731 301.166 -1.21857 308.06 1.08153C314.955 3.39393 313.691 9.33483 313.397 10.0728C313.323 10.2573 312.82 12.9141 311.961 14.2179V14.2056Z" fill="#F49020"/>
<path d="M307.938 9.81464C307.938 9.81464 305.754 6.64124 300.933 4.88234C294.861 2.66834 289.156 5.86634 289.156 5.86634C289.156 5.86634 293.487 6.21074 295.388 8.00654C297.29 9.79004 298.43 11.2414 301.865 11.02C305.963 10.7494 307.938 9.81464 307.938 9.81464Z" fill="#DB7B1B"/>
<path d="M281.783 50.0469H280.482L278.728 83.7489H277.084L277.796 50.0469H276.495L276.005 83.7243L275.048 83.7366L275.109 128.976H277.931L280.703 83.7735L279.783 83.7243L281.783 50.0469Z" fill="#B4B5B4"/>
<path d="M281.783 51.2427L280.163 51.1074L278.421 84.957H277.305L278.237 51.2427H276.495L276.005 84.9324L275.048 84.9447L275.109 130.172H277.931L280.703 84.9816L279.783 84.9201L281.783 51.2427Z" fill="#B7B7B7"/>
<path d="M295.253 103.787L296.946 104.857L295.805 105.521L294.124 104.451L295.253 103.787Z" fill="#B4B5B4"/>
<path d="M301.546 165.703L303.227 166.774L304.711 163.735L295.29 103.785L292.015 105.704L280.459 47.5742L278.655 48.3245L290.064 106.836L288.923 107.5L301.546 165.703Z" fill="#B7B7B7"/>
<path d="M290.063 106.836L291.743 107.906L290.603 108.57L288.922 107.5L290.063 106.836Z" fill="#B4B5B4"/>
<path d="M280.336 49.3968L285.709 47.1582L295.952 105.436L296.958 104.845L306.392 164.795L303.227 166.751L302.736 164.513L290.603 108.548L291.732 107.883L280.323 49.3722L280.336 49.3968ZM295.069 106.247L284.58 48.1791L281.538 49.2984L292.836 107.588L295.056 106.235L295.069 106.247Z" fill="#D1D1D1"/>
<path d="M295.069 106.259L293.315 104.955L292.432 105.472L292.836 107.6L295.069 106.259Z" fill="#B4B5B4"/>
<path d="M293.314 104.954L295.068 106.258L284.58 48.1895L282.47 48.9644L293.314 104.954Z" fill="#B7B7B7"/>
<path d="M259.224 104.316L257.543 105.264L258.586 106.014L260.266 105.067L259.224 104.316Z" fill="#B4B5B4"/>
<path d="M249.116 165.607L247.423 166.541L246.196 163.405L259.2 104.316L262.205 106.468L277.135 49.3594L278.828 50.245L264.021 107.747L265.064 108.498L249.116 165.607Z" fill="#B7B7B7"/>
<path d="M264.02 107.746L262.327 108.693L263.37 109.431L265.063 108.496L264.02 107.746Z" fill="#B4B5B4"/>
<path d="M277.133 51.1927L272.116 48.5605L258.438 105.928L257.505 105.264L244.502 164.353L247.422 166.542L248.035 164.34L263.369 109.433L262.327 108.695L277.133 51.1927ZM259.247 106.801L273.146 49.6675L275.992 51.0205L261.296 108.314L259.247 106.801Z" fill="#D1D1D1"/>
<path d="M259.248 106.801L261.015 105.633L261.836 106.211L261.297 108.314L259.248 106.801Z" fill="#B4B5B4"/>
<path d="M261.015 105.633L259.248 106.801L273.147 49.668L275.11 50.6028L261.015 105.633Z" fill="#B7B7B7"/>
<path d="M278.913 44.9187C282.397 44.9187 286.433 42.7539 286.433 42.7539V48.7194C286.433 50.8227 283.072 52.5201 278.913 52.5201C274.754 52.5201 271.405 50.8104 271.405 48.7194V42.7539C271.405 42.7539 275.441 44.9187 278.913 44.9187Z" fill="#666666"/>
<path d="M278.913 38.9531C283.059 38.9531 286.433 40.6628 286.433 42.7538C286.433 44.8448 283.072 46.5545 278.913 46.5545C274.754 46.5545 271.405 44.8448 271.405 42.7538C271.405 40.6628 274.767 38.9531 278.913 38.9531Z" fill="#AFAFAE"/>
<path d="M267.32 42.9019L291.463 32.041L293.732 39.6055L275.773 50.1589L267.32 42.9019Z" fill="#7F7F7E"/>
<path d="M274.938 34.9796L267.209 39.4445C266.179 40.0349 265.345 39.4076 265.345 38.03V18.6698C265.345 17.2922 266.179 15.6932 267.209 15.1028L274.938 10.6379C275.968 10.0475 276.803 10.6748 276.803 12.0524V31.4126C276.803 32.7902 275.968 34.3892 274.938 34.9796Z" fill="#A5A5A5"/>
<path d="M268.596 36.7891L266.449 37.1089L266.105 39.6058L267.7 40.5775L268.596 36.7891Z" fill="#A5A5A5"/>
<path d="M276.177 10.5645L277.808 11.5485L276.999 13.209L274.999 11.4009L276.177 10.5645Z" fill="#A5A5A5"/>
<path d="M276.557 35.964L268.829 40.4289C267.798 41.0193 266.964 40.392 266.964 39.0144V19.6542C266.964 18.2766 267.798 16.6776 268.829 16.0872L276.557 11.6223C277.587 11.0319 278.422 11.6592 278.422 13.0368V32.397C278.422 33.7746 277.587 35.3736 276.557 35.964Z" fill="#AFAFAE"/>
<path d="M272.693 1.31554L273.577 0.589844L275.38 1.46314L274.3 2.73004L272.693 1.31554Z" fill="#A5A5A5"/>
<path d="M276.704 11.5497L265.431 18.0564L267.872 5.14139C268.08 4.10819 268.412 3.22259 269.074 2.82899L272.816 0.664192C273.478 0.282892 274.079 0.750291 274.226 1.42679L276.692 11.5497H276.704Z" fill="#A5A5A5"/>
<path d="M278.325 12.3231L267.051 18.8298L269.492 5.91483C269.701 4.88163 270.032 3.99603 270.694 3.60243L274.436 1.43763C275.098 1.05633 275.699 1.52373 275.847 2.20023L278.312 12.3231H278.325Z" fill="#AFAFAE"/>
<path d="M289.193 35.1382L277.809 28.5577V13.3672L289.193 19.9477V35.1382Z" fill="#A5A5A5"/>
<path d="M275.772 50.1583L264.388 43.5778L266.817 35.0293L278.213 41.6098L275.772 50.1583Z" fill="#BFBFBE"/>
<path d="M266.816 35.0286L277.035 29.0508L288.419 35.6313L278.213 41.6091L266.816 35.0286Z" fill="#D1D1D1"/>
<path d="M278.974 37.3426L267.59 30.7621V19.3477L278.974 25.9282V37.3426Z" fill="#BFBFBE"/>
<path d="M269.822 26.347C269.822 28.9792 271.417 32.0296 273.392 33.1735C275.367 34.3174 276.962 33.0997 276.962 30.4675C276.962 27.8353 275.367 24.7849 273.392 23.641C271.417 22.4971 269.822 23.7148 269.822 26.347Z" fill="#A5A5A5"/>
<path d="M269.847 25.5334L271.527 24.5371L275.097 32.323L273.49 33.2824L269.847 25.5334Z" fill="#3F3F3F"/>
<path d="M270.497 26.8361C270.497 28.8902 271.748 31.2887 273.294 32.1743C274.84 33.0599 276.091 32.1251 276.091 30.0587C276.091 27.9923 274.84 25.6061 273.294 24.7205C271.748 23.8349 270.497 24.7697 270.497 26.8361Z" fill="#3F3F3F"/>
<path d="M268.902 27.7853C268.902 29.8394 270.154 32.2379 271.699 33.1235C273.245 34.0091 274.496 33.0743 274.496 31.0079C274.496 28.9415 273.245 26.5553 271.699 25.6697C270.154 24.7841 268.902 25.7189 268.902 27.7853Z" fill="#666666"/>
<path d="M270.693 27.8716C270.693 27.3181 270.828 26.8753 271.062 26.5801C270.313 26.5063 269.773 27.1336 269.773 28.2652C269.773 29.692 270.644 31.3525 271.712 31.9675C272.362 32.3488 272.938 32.2381 273.282 31.7953C273.073 31.7707 272.865 31.7092 272.632 31.5739C271.564 30.9589 270.693 29.2984 270.693 27.8716Z" fill="#3F3F3F"/>
<path d="M271.712 26.7989C271.478 26.6636 271.27 26.6021 271.061 26.5898C270.841 26.885 270.693 27.3155 270.693 27.8813C270.693 29.3081 271.564 30.9686 272.632 31.5836C272.865 31.7189 273.073 31.7804 273.282 31.805C273.503 31.5098 273.65 31.0793 273.65 30.5135C273.65 29.0867 272.779 27.4262 271.712 26.8112V26.7989Z" fill="#F49020"/>
<path d="M267.59 19.345L277.809 13.3672L289.193 19.9477L278.974 25.9255L267.59 19.345Z" fill="#D1D1D1"/>
<path d="M269.589 19.2622L277.857 14.416L287.07 19.7542L278.802 24.5881L269.589 19.2622Z" fill="#BFBFBE"/>
<path d="M278.974 41.1195L289.192 35.1417V19.9512L278.974 25.929V41.1195Z" fill="#A5A5A5"/>
<path d="M273.736 4.66179C273.736 5.22759 273.393 5.89179 272.963 6.13779C272.534 6.38379 272.19 6.12549 272.19 5.54739C272.19 4.96929 272.534 4.31739 272.963 4.07139C273.393 3.82539 273.736 4.08369 273.736 4.66179Z" fill="#3F3F3F"/>
<path d="M285.39 10.971L273.441 4.02148L272.436 6.13708L284.482 13.1481L285.39 10.971Z" fill="#3F3F3F"/>
<path d="M285.758 11.6341C285.758 12.1999 285.414 12.8641 284.985 13.1101C284.555 13.3561 284.212 13.0978 284.212 12.532C284.212 11.9662 284.555 11.302 284.985 11.056C285.414 10.81 285.758 11.0683 285.758 11.6341Z" fill="#666666"/>
<path d="M287.991 42.6065L280.262 47.0714C279.232 47.6618 278.397 47.0345 278.397 45.6569V26.2967C278.397 24.9191 279.232 23.3201 280.262 22.7297L287.991 18.2648C289.021 17.6744 289.855 18.3017 289.855 19.6793V39.0395C289.855 40.4171 289.021 42.0161 287.991 42.6065Z" fill="#A5A5A5"/>
<path d="M281.648 44.4141L279.488 44.7216L279.157 47.2185L280.74 48.2025L281.648 44.4141Z" fill="#A5A5A5"/>
<path d="M289.228 18.1777L290.848 19.174L290.038 20.8222L288.051 19.0264L289.228 18.1777Z" fill="#A5A5A5"/>
<path d="M289.597 43.589L281.869 48.0539C280.838 48.6443 280.004 48.017 280.004 46.6394V27.2792C280.004 25.9016 280.838 24.3026 281.869 23.7122L289.597 19.2473C290.628 18.6569 291.462 19.2842 291.462 20.6618V40.022C291.462 41.3996 290.628 42.9986 289.597 43.589Z" fill="#AFAFAE"/>
<path d="M285.733 8.92895L286.616 8.20325L288.432 9.07655L287.352 10.3434L285.733 8.92895Z" fill="#A5A5A5"/>
<path d="M289.757 19.1748L278.483 25.6815L280.924 12.7665C281.133 11.7333 281.464 10.8477 282.127 10.4541L285.868 8.28931C286.531 7.90801 287.132 8.37541 287.279 9.05191L289.745 19.1748H289.757Z" fill="#A5A5A5"/>
<path d="M291.376 19.9481L280.103 26.4548L282.544 13.5398C282.752 12.5066 283.084 11.621 283.746 11.2274L287.488 9.06263C288.15 8.68133 288.751 9.14873 288.898 9.82523L291.364 19.9481H291.376Z" fill="#AFAFAE"/>
<path d="M289.107 43.0245L282.372 46.9113C281.477 47.4279 280.753 46.8744 280.753 45.6813V25.9398C280.753 24.7467 281.477 23.3568 282.372 22.8402L289.107 18.9534C290.003 18.4368 290.726 18.9903 290.726 20.1834V39.9249C290.726 41.118 290.003 42.5079 289.107 43.0368V43.0245Z" fill="#7F7F7E"/>
<path d="M290.652 19.6679L280.838 25.3382L282.96 14.096C283.144 13.1981 283.426 12.4232 284.015 12.0911L287.278 10.2092C287.855 9.8771 288.382 10.283 288.505 10.8734L290.652 19.6925V19.6679Z" fill="#7F7F7E"/>
<path d="M282.679 42.9741L282.36 42.7773L281.673 44.2656L281.98 44.4501L282.679 42.9741Z" fill="#666666"/>
<path d="M282.556 43.2204C282.556 43.614 282.323 44.0691 282.028 44.2413C281.734 44.4135 281.501 44.2413 281.501 43.8354C281.501 43.4295 281.734 42.9867 282.028 42.8145C282.323 42.6423 282.556 42.8145 282.556 43.2204Z" fill="#666666"/>
<path d="M283.991 42.7401L283.353 42.3711L282.004 45.3231L282.617 45.6798L283.991 42.7401Z" fill="#3F3F3F"/>
<path d="M283.746 43.2323C283.746 44.0072 283.267 44.9174 282.691 45.2618C282.102 45.5939 281.636 45.2372 281.636 44.4623C281.636 43.6874 282.114 42.7772 282.691 42.4328C283.28 42.1007 283.746 42.4574 283.746 43.2323Z" fill="#3F3F3F"/>
<path d="M284.347 43.5916C284.347 44.3665 283.869 45.2767 283.292 45.6211C282.703 45.9532 282.237 45.5965 282.237 44.8216C282.237 44.0467 282.716 43.1365 283.292 42.7921C283.881 42.46 284.347 42.8167 284.347 43.5916Z" fill="#666666"/>
<path d="M274.619 48.0072L266.792 43.5177C266.179 43.161 265.885 42.4353 266.081 41.7588L267.259 37.6383C267.418 37.0848 268.056 36.8142 268.559 37.1094L276.386 41.5989C276.999 41.9556 277.293 42.6813 277.097 43.3578L275.919 47.4783C275.76 48.0318 275.122 48.3024 274.619 48.0072Z" fill="#3F3F3F"/>
<path d="M267.259 37.1216L268.044 36.9863L268.486 37.3061L267.737 37.8965L267.259 37.1216Z" fill="#3F3F3F"/>
<path d="M274.546 48.2037L275.319 48.0807L275.454 47.4165L274.178 47.1582L274.546 48.2037Z" fill="#3F3F3F"/>
<path d="M274.055 48.0794L266.228 43.5899C265.615 43.2332 265.32 42.5075 265.516 41.831L266.694 37.7105C266.854 37.157 267.491 36.8864 267.994 37.1816L275.821 41.6712C276.434 42.0279 276.729 42.7536 276.533 43.4301L275.355 47.5505C275.195 48.104 274.557 48.3746 274.055 48.0794Z" fill="#666666"/>
<path d="M273.551 47.0462L267.037 43.2947L268.485 38.2148L274.999 41.9663L273.551 47.0462Z" fill="#F49020"/>
<path d="M275.993 43.9843L274.938 43.4431L275.172 42.7051L276.214 43.2463L275.993 43.9843Z" fill="#FCD702"/>
<path d="M275.588 45.3384L274.545 44.7849L274.766 44.0469L275.821 44.6004L275.588 45.3384Z" fill="#FCD702"/>
<path d="M275.159 46.6776L274.104 46.1364L274.325 45.3984L275.38 45.9396L275.159 46.6776Z" fill="#FCD702"/>
<path d="M267.787 39.4081L266.744 38.8669L266.965 38.1289L268.02 38.6701L267.787 39.4081Z" fill="#FCD702"/>
<path d="M267.394 40.7602L266.339 40.2067L266.56 39.4688L267.615 40.0223L267.394 40.7602Z" fill="#FCD702"/>
<path d="M266.951 42.1015L265.896 41.5603L266.117 40.8223L267.172 41.3635L266.951 42.1015Z" fill="#FCD702"/>
<path d="M294.604 45.3376C294.604 45.3376 295.781 45.8173 296.579 46.6783C297.364 47.5393 300.443 52.5454 303.105 55.8049C305.767 59.0521 308.674 58.9168 309.484 59.1259C310.294 59.335 311.52 61.0816 312.87 60.6142C314.219 60.1468 314.293 58.0435 314.293 58.0435C314.293 58.0435 317.335 57.7483 320.316 53.0128C323.297 48.2896 324.647 42.1027 324.647 42.1027L317.544 36.457C317.544 36.457 315.667 40.4668 314.096 42.6439C312.526 44.821 311.937 48.9661 311.937 48.9661C311.937 48.9661 308.748 46.7029 305.399 44.698C302.062 42.6931 297.585 39.3475 297.585 39.3475L294.616 45.3376H294.604Z" fill="#FFC9B6"/>
<path d="M291.021 33.2813C288.862 32.3711 288.236 32.0759 286.335 32.0144C284.433 31.9529 284.041 32.5064 284.642 33.4535C285.243 34.4006 287.537 34.8803 287.537 34.8803C287.537 34.8803 284.458 34.8065 284.372 35.8889C284.286 36.9713 287.059 37.3403 287.059 37.3403C287.059 37.3403 285.378 38.2136 285.734 38.9516C286.139 39.788 289.831 40.0955 289.831 40.0955C289.831 40.0955 290.592 43.1705 292.37 44.6957C294.149 46.2209 295.425 45.3968 296.554 46.676C300.295 46.0364 301.129 41.9159 301.129 41.9159C301.129 41.9159 293.83 34.4744 290.997 33.2813H291.021Z" fill="#3F3F3F"/>
<path d="M290.125 39.2852C290.125 39.2852 288.272 39.8879 287.07 40.2323C285.868 40.5644 286.175 41.5115 287.07 41.6222C287.966 41.7329 291.143 42.0527 291.683 41.1056C292.222 40.1585 290.125 39.2975 290.125 39.2975V39.2852Z" fill="#3F3F3F"/>
<path d="M320.155 28.9912C324.032 29.3725 326.62 35.1289 326.13 40.9837C325.933 43.4191 323.885 46.8016 323.308 48.2653C323.406 49.8889 322.707 52.0537 322.707 52.0537C322.707 52.0537 320.634 52.4965 315.408 50.098C311.765 48.4252 310.943 47.5888 310.943 47.5888C310.943 47.5888 310.943 44.2801 311.899 43.3576C311.065 39.5692 312.599 28.2655 320.143 29.0035L320.155 28.9912Z" fill="#D1D1D1"/>
<g style="mix-blend-mode:multiply" opacity="0.5">
<path d="M46.4573 262.618C37.0359 268.903 36.1649 276.369 47.9539 281.88C59.7552 287.39 75.3962 300.022 86.6823 299.567C97.9683 299.112 123.791 285.238 103.231 273.553C82.6708 261.88 63.9262 250.957 46.4451 262.606L46.4573 262.618Z" fill="#D3B079"/>
</g>
<path d="M121.841 286.479L125.3 290.612L127.202 289.579V101.708L121.841 98.6211V286.479Z" fill="#D1D1D1"/>
<path d="M119.938 287.51L125.299 290.61V288.482V102.74L119.938 99.6523V287.51Z" fill="#EFEFEF"/>
<path d="M119.938 119.443L125.299 122.543V102.74L119.938 99.6523V119.443Z" fill="#F49020"/>
<path d="M119.938 99.6543L121.84 98.6211L127.201 101.708L125.299 102.742L119.938 99.6543Z" fill="#DB7B1B"/>
<path d="M58.1474 164.057C58.1474 164.057 54.8843 170.822 53.1055 173.786C51.339 176.738 51.2899 178.214 52.026 181.806C52.7743 185.409 54.1482 191.842 54.8843 194.782C54.0378 196.959 52.21 198.14 53.5962 200.772C52.259 200.797 51.4617 201.768 51.9769 202.826C53.5471 206.049 56.9575 206.602 59.0307 205.557C61.0916 204.511 59.8771 198.964 59.9875 197.439C60.147 195.126 60.2451 189.542 60.9444 185.286C61.6804 180.822 60.5518 178.485 60.5518 178.485L64.502 167.132L58.1597 164.057H58.1474Z" fill="#FFC9B6"/>
<path d="M91.9451 268.753C91.7733 272.726 90.9392 278.138 92.4849 278.15C95.1469 277.178 97.6494 275.653 99.9803 277.006C102.421 278.421 102.642 280.635 102.115 282.836C101.33 283.882 99.8576 285.481 97.7476 286.563C94.7911 288.064 91.025 288.913 89.7124 289.146C87.8232 290.339 85.1489 291.299 83.1371 290.29C81.0639 289.257 80.0211 288.371 80.5732 286.096C81.5055 282.295 81.0148 282.086 79.555 275.776C78.7453 272.308 92.08 265.543 91.9451 268.765V268.753Z" fill="#3F3F3F"/>
<path d="M67.5085 175.386C62.6997 174.869 57.9767 173.627 54.3701 170.503C55.1798 169.113 55.8667 165.435 56.1489 164.094C57.2039 159.15 58.2221 155.324 62.344 152.212C67.5699 148.264 72.0966 153.59 75.8995 155.989C75.924 156.013 75.9485 156.013 75.9731 156.038C76.8195 157.182 76.7459 158.608 76.4638 160.035C76.4147 160.613 74.0471 169.322 72.1579 172.2C71.1888 173.676 69.4959 174.709 67.5208 175.386H67.5085Z" fill="#D1D1D1"/>
<path d="M75.8125 143.995C74.6594 146.972 69.2617 157.968 69.2617 157.968L82.2161 164.13C82.2161 164.13 82.4247 155.053 84.8536 148.878C87.2703 142.704 75.8125 143.995 75.8125 143.995Z" fill="#FFB9A4"/>
<path d="M50.1006 267.793C48.6408 261.717 49.9044 251.212 51.217 247.904C55.5719 247.805 61.2272 249.097 64.1469 251.249C63.2268 254.865 62.8833 255.874 62.3067 258.482C61.9755 259.958 61.583 261.409 61.1413 262.848C60.4666 265.025 60.6506 265.074 62.8833 264.964C66.2691 264.804 69.4341 265.382 69.52 269.183C69.5445 270.13 67.4345 272.848 66.5513 273.402C61.816 276.354 58.786 275.111 56.8232 274.668C55.1916 276.132 51.2783 274.951 48.923 272.873C48.1501 272.184 49.291 268.691 50.1006 267.805V267.793Z" fill="#3F3F3F"/>
<path d="M84.2166 195.384C83.3333 193.219 82.9285 192.493 80.5977 192.419C78.1932 192.333 75.7888 192.875 73.3476 192.702C69.7655 192.456 66.4288 191.522 63.0675 190.328C61.7181 189.849 59.7185 196.761 59.3995 200.132C58.9579 204.806 59.5958 206.491 60.3809 210.906C58.6757 215.371 57.3386 223.6 59.9148 229.59C56.3204 233.809 52.3703 240.881 50.5424 246.367C48.1503 253.514 48.69 262.099 48.6778 264.473C48.5674 268.433 59.0192 267.769 61.9143 264.19C64.0979 256.047 73.3108 237.241 75.1877 233.637C77.7761 228.655 78.8066 225.15 81.2233 220.082C83.0879 216.171 85.6396 212.099 86.2284 207.745C86.7804 203.735 85.7132 199.074 84.2166 195.371V195.384Z" fill="#DB7B1B"/>
<path d="M88.5584 201.066C87.1967 198.692 68.3416 197.166 68.587 197.277C67.7283 201.016 62.6863 211.311 70.7093 215.358C71.0037 216.994 76.6467 235.825 80.2656 242.111C79.5664 246.219 78.266 247.473 79.9344 252.799C79.3946 254.029 78.2415 258.347 78.1556 262.725C77.9961 270.917 79.6154 280.733 80.695 282.123C83.1116 285.21 92.3858 283.758 92.484 278.15C92.8152 273.611 96.7162 240.954 97.1701 232.185C94.6921 218.851 92.7416 208.323 88.5584 201.053V201.066Z" fill="#F49020"/>
<path d="M63.8521 199.836C63.8521 199.836 66.6123 204.129 75.4571 205.015C84.3142 205.9 89.074 202.014 89.074 202.014L88.0067 199.984C88.0067 199.984 78.4136 202.383 72.378 200.095C66.3424 197.795 64.3919 197.34 64.3919 197.34L63.8398 199.836H63.8521Z" fill="#DB7B1B"/>
<path d="M90.3622 194.634C91.086 193.121 86.1299 192.002 86.1299 192.002L84.9277 195.507C84.9277 195.507 88.976 197.512 90.3622 194.634Z" fill="#DB7B1B"/>
<path d="M89.3556 162.213C87.491 161.093 75.4198 151.684 67.8017 152.901C63.0052 153.664 60.8461 163.233 60.4903 168.215C60.2573 171.425 60.981 186.407 60.7357 189.076C60.3677 189.74 59.4108 191.376 60.5762 192.237C59.1532 193.762 60.2327 194.512 61.7048 196.025C63.2382 197.587 72.6964 202.409 77.0146 202.311C83.0256 202.188 87.0126 202.015 88.5583 200.81C89.6255 199.974 89.0489 198.276 88.0553 197.464C88.546 194.303 92.2507 189.223 92.7292 186.271C93.6983 180.22 95.3299 175.878 95.5016 169.716C95.6366 164.845 92.9132 164.34 89.3802 162.225L89.3556 162.213Z" fill="#EFEFEF"/>
<path d="M69.1641 153.184C69.1641 153.184 69.5321 154.377 72.9547 156.05C76.3773 157.723 82.7932 159.273 82.7932 159.273L83.2716 158.178C83.2716 158.178 80.6341 155.767 76.9539 154.02C73.2737 152.274 70.6484 152.975 70.6484 152.975L69.1641 153.196V153.184Z" fill="#D1D1D1"/>
<path d="M89.3187 140.182C88.4967 136.554 86.7793 133.491 83.1727 132.704C79.7623 131.953 75.9472 133.503 73.739 136.369C71.0402 139.887 71.9602 143.663 74.4873 146.972C75.984 148.927 78.2289 150.662 79.7746 151.424C81.7987 152.433 85.7488 153.934 87.9202 150.723C89.9198 147.771 90.0547 143.466 89.3064 140.182H89.3187Z" fill="#FFC9B6"/>
<path d="M88.6814 134.414C87.4179 134.217 87.8841 133.049 86.7432 132.421C84.2038 131.019 80.4745 130.773 77.7143 131.413C72.059 132.729 68.7346 135.705 71.0777 140.195C70.6974 142.544 72.746 148.497 72.3412 151.622C76.5121 152.495 79.5422 150.318 80.5236 146.333C82.8544 146.677 87.0621 142.126 85.8722 140.109C90.1167 140.994 90.1658 134.635 88.6814 134.402V134.414Z" fill="#3F3F3F"/>
<path d="M86.5722 142.876C86.5722 142.876 84.7198 140.453 83.1986 143.552C81.9473 146.111 85.1859 146.96 85.1859 146.96L86.5722 142.876Z" fill="#FFC9B6"/>
<path d="M81.8238 139.272C81.8238 139.272 86.1175 142.937 92.7173 138.447C99.3172 133.958 93.3184 129.382 88.6936 130.071C84.0688 130.76 81.7012 132.999 81.7012 132.999L81.8361 139.272H81.8238Z" fill="#DB7B1B"/>
<path d="M88.6811 134.414C88.0186 128.498 79.4805 125.324 73.0891 130.048C69.5929 132.631 67.7773 137.993 71.3349 143.602C72.1691 145.865 87.4911 144.795 88.6811 134.426V134.414Z" fill="#F49020"/>
<path d="M76.8924 129.271C77.1255 129.726 76.6226 130.452 75.7761 130.87C74.9296 131.301 74.0587 131.276 73.8256 130.821C73.5925 130.366 74.0955 129.64 74.9419 129.222C75.7884 128.792 76.6594 128.816 76.8924 129.271Z" fill="#DB7B1B"/>
<path d="M100.336 166.491C99.9062 168.312 100.299 169.653 101.55 170.514C102.801 171.375 106.383 170.341 105.439 168.066C106.322 167.365 105.537 166.504 105.157 165.581C105.512 164.277 104.678 163.084 103.856 163.281C101.538 163.835 100.765 164.659 100.323 166.479L100.336 166.491Z" fill="#FFC9B6"/>
<path d="M81.6768 242.223C81.6768 242.223 83.8113 243.564 85.8477 243.17C87.8841 242.777 88.6692 241.62 88.6692 241.62C88.6692 241.62 86.5101 241.436 85.173 241.694C83.8358 241.953 81.6768 242.223 81.6768 242.223Z" fill="#DB7B1B"/>
<path d="M82.4121 240.331C82.4121 240.331 85.2827 238.203 86.6076 237.871C87.9325 237.539 88.9752 237.342 88.9752 237.342C88.9752 237.342 87.2946 238.719 86.0555 239.371C84.8165 240.023 82.4121 240.343 82.4121 240.343V240.331Z" fill="#DB7B1B"/>
<path d="M61.7301 169.912L59.571 177.833C59.571 177.833 59.6692 186.406 60.1844 189.272C59.755 190.379 59.0067 190.625 59.8654 191.905C58.1357 192.003 58.7491 193.7 59.6078 195.066C61.3743 197.858 63.8646 199.26 66.6861 200.687C69.5077 202.101 78.7205 204.155 82.2167 203.208C85.7129 202.261 90.0065 201.154 89.6631 199.469C89.3196 197.784 89.3564 197.23 89.3564 197.23L90.3746 194.635C90.3746 194.635 86.6453 196.271 82.0327 194.18C79.2357 192.913 74.0343 186.677 75.1752 176.222C69.7775 174.808 61.7424 169.912 61.7424 169.912H61.7301Z" fill="#F49020"/>
<path d="M72.1937 177.377C72.4758 177.192 73.8988 169.603 76.5118 164.253C78.6218 159.923 81.1489 157.967 82.6946 158.189C84.8414 158.496 85.4548 160.169 85.4548 160.169C85.4548 160.169 82.8786 159.591 80.4742 162.715C78.082 165.839 75.0029 176.184 75.0029 178.189C75.0029 180.193 72.1814 177.364 72.1814 177.364L72.1937 177.377Z" fill="#F49020"/>
<path d="M71.3719 153.613C70.7094 154.203 69.0043 155.212 67.1028 159.923C65.8883 162.949 63.4103 172.334 63.4103 172.334L61.4475 171.03C61.4475 171.03 63.0055 164.166 64.8456 159.603C66.6857 155.04 68.2927 153.465 69.5563 152.629C70.231 152.186 71.3473 152.42 71.7767 152.74C71.6172 153.195 71.3596 153.601 71.3596 153.601L71.3719 153.613Z" fill="#F49020"/>
<path d="M73.8863 199.69C73.8863 199.69 76.855 201.215 79.517 201.067C82.1668 200.92 84.6939 199.542 84.6939 199.542C84.6939 199.542 81.3694 199.149 79.836 199.419C78.3026 199.69 73.874 199.69 73.874 199.69H73.8863Z" fill="#DB7B1B"/>
<path d="M128.132 145.84C128.721 142.864 130.488 140.305 127.188 139.247C126.893 139.543 124.943 141.031 124.072 141.055C123.311 141.068 120.306 141.191 119.876 140.686C119.876 140.686 119.815 139.063 119.938 137.98C119.243 138.284 118.572 138.665 117.926 139.124C116.748 139.961 117.791 143.196 117.46 145.41C117.288 146.59 113.461 154.45 112.332 155.692C109.768 158.509 109.179 161.068 109.179 161.068C109.179 161.068 99.0341 163.737 95.5992 165.434C92.8022 166.812 91.416 168.558 91.416 168.558L92.8513 180.157C92.8513 180.157 96.6297 177.845 102.31 175.68C103.291 175.311 108.983 173.847 113.326 170.059C115.203 169.382 114.982 169.222 115.239 168.079C117.141 166.197 117.055 165.04 119.116 159.382C120.245 156.271 122.6 148.03 122.6 148.03C124.158 148.226 127.654 148.177 128.108 145.865L128.132 145.84Z" fill="#FFC9B6"/>
<path d="M100.065 163.06C98.0168 163.294 95.6246 162.974 95.1952 163.885C91.8708 162.298 88.2641 161.437 85.553 164.057C81.3821 168.079 80.5479 178.46 85.4549 182.679C88.6812 185.459 91.3065 184.647 94.9499 180.317C96.4097 179.69 100.016 178.435 103.218 176.898C106.273 171.732 103.93 165.865 100.078 163.06H100.065Z" fill="#D1D1D1"/>
<path d="M127.2 101.707L125.299 102.74V122.543L127.2 121.461V101.707Z" fill="#DB7B1B"/>
<path d="M119.938 201.818L125.299 204.918V185.115L119.938 182.027V201.818Z" fill="#F49020"/>
<path d="M127.2 184.082L125.299 185.115V204.918L127.2 203.836V184.082Z" fill="#DB7B1B"/>
<path d="M119.938 287.646L125.299 290.746V270.943L119.938 267.855V287.646Z" fill="#F49020"/>
<path d="M127.2 269.91L125.299 270.943V290.746L127.2 289.664V269.91Z" fill="#DB7B1B"/>
<path d="M85.124 324.67L80.2783 321.829L373.286 144.586L377.69 147.107L85.124 324.67Z" fill="#F9F0DC"/>
<g style="mix-blend-mode:multiply" opacity="0.5">
<path d="M265.823 331.016L360.012 276.576L303.778 245.211L209.589 299.651L265.823 331.016Z" fill="#D3B079"/>
</g>
<path d="M257.494 261.166C259.53 262.273 262.241 264.18 264.756 265.336C268.362 266.984 267.81 268.965 267.553 271.449C267.32 273.577 263.284 274.254 260.99 274.192C258.487 274.131 254.181 269.826 253.261 269.444C251.765 269.407 250.182 269.789 248.477 268.079C246.993 266.591 248.587 262.556 249.078 261.978C248.477 259.727 258.315 256.234 257.506 261.166H257.494Z" fill="#3F3F3F"/>
<path d="M215.661 264.524C215.33 265.865 212.827 268.472 212.349 269.543C211.11 270.637 210.631 270.49 209.65 271.781C208.215 273.688 208.325 274.684 209.724 276C211.183 277.39 212.545 277.661 212.545 277.661C212.545 277.661 214.066 283.565 215.06 284.561C217.526 287.021 220.004 288.005 223.807 288.116C227.426 288.226 229.621 285.348 229.621 284.216C229.621 281.818 228.738 280.244 226.469 279.309C224.003 278.288 222.04 275.594 221.758 274.229C221.758 274.229 223.598 271.904 225.181 269.1C226.824 266.172 216.692 260.342 215.673 264.536L215.661 264.524Z" fill="#3F3F3F"/>
<path d="M261.285 225.447C260.021 222.618 250.575 210.392 248.146 208.461C246.527 204.181 246.699 204.377 245.264 202.705C245.018 202.422 233.548 208.682 233.585 209.076C234.039 214.82 237.756 224.709 247.607 231.536C248.171 232.827 246.196 235.509 245.926 240.552C245.656 245.57 246.687 255.004 248.294 261.757C248.576 262.962 256.771 265.078 258.206 261.105C261.702 251.376 262.156 227.378 261.285 225.447Z" fill="#DB7B1B"/>
<path d="M241.509 218.361C242.957 214.708 243.092 209.37 241.215 205.975C241.068 205.704 227.169 205.458 227.181 205.446C227.524 204.905 224.629 206.123 224.764 206.664C218.815 215.04 221.219 225.372 226.776 233.835C225.549 234.819 225.206 234.363 226.335 236.368C223.893 239.124 221.501 246.245 219.121 252.346C216.496 259.062 212.853 266.22 213.356 267.992C214.717 272.826 218.692 275.568 223.071 274.203C225.844 273.342 228.408 267.5 230.42 264.585C233.29 260.427 233.609 259.997 236.786 252.752C238.406 249.062 241.031 245.95 241.988 240.821C243.153 234.56 241.681 221.94 241.509 218.373V218.361Z" fill="#F49020"/>
<path d="M223.893 206.405L223.071 209.579C223.071 209.579 234.492 216.282 243.497 214.843C252.501 213.392 244.576 207.488 244.576 207.488L242.797 204.4L223.893 206.418V206.405Z" fill="#DB7B1B"/>
<path d="M228.53 237.093C228.53 237.093 228.739 238.397 231.07 238.877C233.216 239.319 234.652 238.815 235.903 238.335C232.726 237.351 230.088 236.995 228.543 237.105L228.53 237.093Z" fill="#DB7B1B"/>
<path d="M229.904 235.666C229.904 235.666 230.628 234.006 232.346 233.489C234.051 232.973 235.29 233.489 235.29 233.489C235.29 233.489 231.364 235.494 229.917 235.666H229.904Z" fill="#DB7B1B"/>
<path d="M256.905 175.446C251.655 176.614 243.657 179.554 236.088 186.171C231.34 190.316 226.642 199.221 223.918 202.678C221.931 205.199 223.918 207.795 225.231 208.2C229.537 209.553 234.321 213.477 242.602 212.96C247.766 212.641 250.833 213.625 251.618 209.467C253.973 209.467 258.476 205.125 260.34 203.809C266.094 199.763 270.547 189.886 268.559 182.247C266.572 174.609 260.892 174.56 256.918 175.446H256.905Z" fill="#F49020"/>
<path d="M253.126 183.824C250.341 181.474 240.834 183.897 236.7 189.666C232.565 195.435 229.425 201.29 232.234 204.881C236.7 210.601 244.6 208.325 250.39 202.692C256.193 197.058 257.775 187.747 253.126 183.824Z" fill="#EFEFEF"/>
<path d="M263.641 177.156C263.641 177.156 258.721 175.569 253.912 176.959C249.202 178.312 245.019 181.264 245.019 181.264C245.019 181.264 253.36 179.69 255.851 183.958C258.083 187.796 257.679 188.964 257.679 193.121C257.679 197.5 256.525 200.637 256.525 200.637C256.525 200.637 261.494 200.157 265.064 196.615C266.548 193.81 268.155 189.481 266.732 185.323C265.321 181.166 263.628 177.156 263.628 177.156H263.641Z" fill="#EFEFEF"/>
<path d="M260.327 203.824C260.327 203.824 256.696 205.903 255.003 205.891C251.605 205.878 250.035 205.878 250.035 205.878C250.035 205.878 246.318 207.588 246.109 209.618C245.901 211.647 249.9 211.647 253.691 209.482C257.481 207.317 260.327 203.824 260.327 203.824Z" fill="#DB7B1B"/>
<path d="M263.271 194.757C263.271 194.757 259.922 189.801 257.653 184.315C255.837 179.948 258.438 178.927 259.407 177.808C260.842 176.148 262.744 175.41 263.884 176.271C267.871 179.272 267.062 187.353 265.491 190.797C263.921 194.253 263.271 194.745 263.271 194.745V194.757Z" fill="#D1D1D1"/>
<path d="M306.93 213.551V253.723L294.185 261.078V213.551H306.93Z" fill="#B77D4E"/>
<path d="M294.185 213.551V261.078L291.511 259.528V213.551H294.185Z" fill="#A5693D"/>
<path d="M235.118 253.611V295.136L222.385 302.492V253.611H235.118Z" fill="#B77D4E"/>
<path d="M222.384 253.611V302.492L219.697 300.942V253.611H222.384Z" fill="#A5693D"/>
<path d="M262.756 315.864V317.795L223.881 295.261V293.33L262.756 315.864Z" fill="#A86E43"/>
<path d="M262.756 315.864L223.881 293.33L232.615 288.287L262.756 305.827V315.864Z" fill="#E2AC71"/>
<path d="M334.595 274.215L334.607 276.147L295.964 253.662L295.952 251.719L334.595 274.215Z" fill="#A86E43"/>
<path d="M334.595 274.216L295.952 251.719L304.65 246.627L334.533 264.191L334.595 274.216Z" fill="#E2AC71"/>
<path d="M252.771 300.009L316.819 263.897L316.807 265.84L254.451 301.104L252.771 300.009Z" fill="#C9905D"/>
<path d="M248.575 302.491L318.205 263.131L315.273 260.807L243.312 301.458L248.575 302.491Z" fill="#E2AC71"/>
<path d="M265.431 325.459L278.164 318.104V266.357L265.431 273.725V325.459Z" fill="#B77D4E"/>
<path d="M262.757 272.172L265.431 273.722V325.455L262.757 323.906V272.172Z" fill="#A5693D"/>
<path d="M337.244 284.042L349.978 276.687V232.689L337.244 238.495V284.042Z" fill="#B77D4E"/>
<path d="M334.57 238.496L337.245 240.046V284.043L334.57 282.493V238.496Z" fill="#A5693D"/>
<path d="M270.829 280.095L365.019 225.655L308.785 194.303L214.607 248.743L270.829 280.095Z" fill="#E2AC71"/>
<path d="M280.25 269.504L346.923 230.968L299.362 204.904L232.701 243.44L280.25 269.504Z" fill="#D1D1D1"/>
<path d="M281.121 266.565L342.605 230.747L299.362 207.045L237.878 242.875L281.121 266.565Z" fill="#EFEFEF"/>
<path d="M365.018 225.656V229.531L270.828 283.971V280.096L365.018 225.656Z" fill="#C9905D"/>
<path d="M214.607 248.742V252.617L270.829 283.969V280.095L214.607 248.742Z" fill="#A86E43"/>
<path d="M282.434 242.061C278.938 242.061 275.969 240.757 274.681 238.642C273.871 237.313 273.822 235.813 274.546 234.386C276.435 230.696 283.243 224.361 293.438 223.07C303.215 221.828 309.312 225.518 310.256 227.67C310.428 228.051 310.416 228.42 310.207 228.765C309.52 229.896 306.625 230.671 301.595 231.028C296.308 231.409 294.738 232.873 293.818 234.398C291.45 238.359 288.433 242.024 282.495 242.049H282.434V242.061ZM297.375 223.205C296.173 223.205 294.873 223.279 293.487 223.463C283.44 224.73 276.754 230.954 274.889 234.57C274.227 235.862 274.264 237.227 275.012 238.433C276.239 240.425 279.072 241.667 282.434 241.667H282.495C288.236 241.643 291.168 238.064 293.474 234.201C294.444 232.59 296.087 231.028 301.559 230.634C306.318 230.29 309.275 229.552 309.864 228.556C309.999 228.334 310.011 228.088 309.888 227.83C309.287 226.477 305.178 223.205 297.363 223.205H297.375Z" fill="#D1D1D1"/>
<path d="M282.911 239.578C281.354 239.578 279.832 238.902 278.618 237.684C278.041 237.106 277.833 236.344 277.992 235.47C278.507 232.715 282.556 229.271 288.297 226.713C296.185 223.195 301.423 224.462 304.429 226.135C305.336 226.639 305.717 227.119 305.619 227.611C305.373 228.754 302.282 229.148 300.969 229.259C293.768 229.874 291.351 232.826 289.008 235.667C288.579 236.196 288.137 236.737 287.671 237.241C286.31 238.742 284.715 239.542 283.046 239.578C283.01 239.578 282.973 239.578 282.924 239.578H282.911ZM297.657 224.855C295.13 224.855 292.075 225.446 288.444 227.069C282.053 229.923 278.777 233.379 278.373 235.544C278.238 236.294 278.409 236.922 278.888 237.414C280.053 238.594 281.525 239.234 283.01 239.197C284.568 239.16 286.077 238.398 287.352 236.983C287.806 236.479 288.248 235.938 288.677 235.421C291.069 232.506 293.547 229.492 300.908 228.865C303.349 228.656 305.079 228.127 305.214 227.537C305.275 227.254 304.919 226.885 304.22 226.491C302.662 225.618 300.491 224.868 297.645 224.868L297.657 224.855Z" fill="#D1D1D1"/>
<path d="M281.967 246.282C278.655 246.282 274.852 245.286 271.258 242.961C269.001 241.497 267.897 239.702 267.97 237.623C268.105 233.785 272.362 229.21 279.342 225.384C288.653 220.268 299.829 219.111 309.226 222.26C313.924 223.835 316.66 226.012 316.721 228.226C316.758 229.48 315.887 230.563 314.317 231.202C312.967 231.756 311.238 232.112 309.226 232.531C306.441 233.109 303.288 233.761 300.234 235.114C296.087 236.946 293.72 239.443 291.426 241.866C290.8 242.518 290.223 243.133 289.598 243.748C287.978 245.335 285.218 246.282 281.98 246.282H281.967ZM298.209 220.907C291.855 220.907 285.329 222.543 279.538 225.729C272.779 229.443 268.51 234.007 268.375 237.635C268.301 239.566 269.344 241.239 271.479 242.617C278.815 247.364 286.555 246.159 289.316 243.453C289.929 242.85 290.518 242.235 291.131 241.583C293.45 239.136 295.854 236.602 300.074 234.745C303.166 233.379 306.343 232.715 309.152 232.137C311.152 231.719 312.869 231.362 314.182 230.833C315.592 230.255 316.378 229.32 316.341 228.238C316.279 226.233 313.581 224.142 309.115 222.641C305.668 221.485 301.976 220.907 298.222 220.907H298.209Z" fill="#D1D1D1"/>
<path d="M282.924 237.29C282.458 237.29 282.004 237.167 281.624 236.909C280.937 236.454 280.593 235.691 280.679 234.806C280.863 232.825 286.224 228.976 289.585 228.914C290.726 228.914 291.315 229.086 291.45 229.529C291.572 229.923 291.425 230.648 288.739 232.456C287.782 233.096 287.144 233.932 286.518 234.744C285.856 235.605 285.242 236.417 284.31 236.909C283.856 237.155 283.39 237.278 282.936 237.278L282.924 237.29ZM289.72 229.308C289.72 229.308 289.634 229.308 289.585 229.308C286.236 229.357 281.231 233.194 281.072 234.843C280.998 235.568 281.28 236.208 281.844 236.577C282.482 237.007 283.341 237.007 284.126 236.577C284.973 236.122 285.574 235.335 286.212 234.511C286.85 233.674 287.512 232.813 288.518 232.137C291.07 230.415 291.119 229.8 291.07 229.652C291.033 229.541 290.836 229.308 289.732 229.308H289.72Z" fill="#D1D1D1"/>
<path d="M278.753 265.311L278.446 265.053C278.544 264.942 287.806 253.885 293.388 250.453C297.252 248.079 306.073 245.311 313.85 242.876C317.469 241.744 320.879 240.674 323.529 239.727C328.547 237.944 330.154 235.902 329.982 234.598C329.835 233.491 328.448 232.716 326.265 232.532C326.179 232.532 317.444 232.052 307.79 234.733C297.743 237.526 294.455 241.609 291.548 245.225L291.168 245.693C288.309 249.26 286.727 251.215 283.267 252.421C279.722 253.651 275.33 253.811 275.281 253.811C270.08 253.7 262.793 252.482 257.886 249.407C255.408 247.858 254.12 245.84 254.034 243.417C253.887 238.842 258.033 234.168 261.628 231.572C267.344 227.427 277.87 223.319 285.782 221.093C292.922 219.076 306.306 210.908 306.441 210.822L306.649 211.154C306.514 211.24 293.081 219.432 285.893 221.462C278.029 223.688 267.541 227.772 261.861 231.892C258.058 234.647 254.292 239.272 254.427 243.405C254.5 245.693 255.739 247.599 258.095 249.075C262.928 252.113 270.141 253.306 275.281 253.429C275.318 253.429 279.649 253.27 283.132 252.064C286.494 250.896 287.954 249.088 290.861 245.471L291.241 245.004C294.185 241.351 297.522 237.206 307.68 234.377C317.408 231.671 326.203 232.163 326.289 232.163C328.681 232.372 330.203 233.27 330.374 234.574C330.62 236.468 328.105 238.546 323.664 240.121C321.014 241.068 317.592 242.138 313.973 243.27C306.208 245.705 297.424 248.448 293.597 250.797C288.076 254.192 278.851 265.201 278.753 265.311Z" fill="#D1D1D1"/>
<path d="M308.686 241.817C307.925 241.817 307.324 241.584 307.042 240.932C306.883 240.575 306.92 240.194 307.116 239.813C308.097 238.017 313.274 236.27 317.887 235.471C321.272 234.893 325.247 234.942 325.959 236.172C326.106 236.43 326.179 236.86 325.689 237.439C324.388 238.976 320.745 239.394 317.519 239.776C316.562 239.886 315.654 239.997 314.881 240.12C314.329 240.206 313.519 240.501 312.661 240.797C311.336 241.264 309.815 241.805 308.661 241.805L308.686 241.817ZM317.96 235.864C313.544 236.627 308.367 238.337 307.459 239.997C307.312 240.268 307.288 240.526 307.398 240.772C307.95 242.063 310.502 241.166 312.55 240.428C313.421 240.12 314.243 239.825 314.832 239.726C315.617 239.603 316.525 239.493 317.494 239.382C320.487 239.038 324.217 238.607 325.407 237.18C325.824 236.688 325.676 236.442 325.627 236.369C325.112 235.471 321.604 235.237 317.96 235.864Z" fill="#D1D1D1"/>
<path d="M336.533 230.207C332.742 230.207 327.516 229.174 324.756 227.083C320.671 223.983 315.703 221.745 310.931 219.789C309.385 219.149 308.428 218.215 308.097 217.009C307.496 214.807 309.201 212.52 309.262 212.434L309.581 212.667C309.581 212.667 307.925 214.894 308.477 216.911C308.772 217.993 309.643 218.83 311.078 219.42C315.874 221.388 320.867 223.639 324.989 226.763C328.853 229.69 337.637 230.49 340.164 229.26L340.336 229.617C339.551 229.998 338.177 230.195 336.533 230.195V230.207Z" fill="#D1D1D1"/>
<path d="M304.489 213.011L251.506 243.663L246.648 240.846L299.632 210.207L304.489 213.011Z" fill="#F49020"/>
<path d="M246.648 240.846V241.399L251.506 244.204V243.662L246.648 240.846Z" fill="#F2A803"/>
<path d="M304.49 213.01V213.563L251.507 244.203V243.661L304.49 213.01Z" fill="#DB7B1B"/>
<path d="M270.571 177.844C271.466 177.856 276.214 185.74 280.556 192.53C284.899 199.32 285.071 204.879 288.027 206.872C290.984 208.852 292.173 208.815 293.413 209.664C297.78 212.628 298.884 215.592 294.418 215.863C289.953 216.134 289.143 211.349 286.494 212.591C283.844 213.821 284.739 215.211 282.728 215.297C280.716 215.383 285.426 212.222 284.555 210.23C283.672 208.237 277.772 202.727 275.269 199.725C271.38 195.051 269.037 188.963 269.037 188.963L270.583 177.856L270.571 177.844Z" fill="#F9B5A0"/>
<path d="M243.374 197.45C243.374 197.45 244.036 203.538 243.913 206.921C243.791 210.291 244.171 210.34 246.048 212.394C247.925 214.448 252.402 222.296 256.107 226.06C257.493 227.474 258.058 228.704 257.432 229.971C255.935 233.046 252.513 236.023 253.506 237.412C254.66 239.036 256.402 239.7 258.585 238.298C260.008 237.388 261.554 233.501 262.241 233.034C263.554 232.173 264.694 231.447 266.007 232.296C266.939 232.898 269.184 233.476 267.737 231.558C266.216 229.528 262.584 228.151 261.652 226.588C259.947 223.723 259.223 218.655 256.549 214.67C253.875 210.685 252.979 207.72 252.979 207.72L253.506 198.581L243.361 197.438L243.374 197.45Z" fill="#F9B5A0"/>
<path d="M254.181 187.292C252.537 184.771 248.575 184.389 245.017 186.111C241.865 187.624 242 192.348 242.76 197.526C241.938 200.183 242.539 202.446 242.871 206.763C244.772 206.714 249.544 207.354 253.85 206.296C254.868 204.131 255.003 199.125 254.549 197.563C255.923 192.175 255.04 188.608 254.181 187.305V187.292Z" fill="#D1D1D1"/>
<path d="M266.399 187.722L263.639 191.412C262.952 187.931 258.609 183.294 260.793 181.264C261.64 180.477 264.584 178.509 265.283 177.808C265.884 175.053 267.957 175.471 271.306 174.758C274.815 174.007 278.753 176.492 279.955 179.837C280.212 180.194 281.194 182.568 279.611 184.561C277.857 186.787 273.711 191.03 271.036 190.797C269.172 190.637 267.442 189.087 266.399 187.722Z" fill="#FFC9B6"/>
<path d="M267.405 171.709C268.742 170.011 270.767 168.991 273.281 169.31C276.115 169.679 280.139 171.992 280.679 175.091C280.752 175.054 280.814 174.981 280.887 174.956C281.881 174.587 282.703 175.264 283.046 176.161C283.316 176.863 283.341 177.674 283.206 178.449C283.66 178.56 284.101 178.831 284.371 179.2C285.328 180.528 284.138 182.324 283.022 183.099C280.715 184.71 275.735 184.956 273.551 182.754C272.877 184.12 271.822 184.427 270.276 184.624C267.859 184.931 265.504 183.566 264.253 181.537C262.83 179.236 262.425 175.706 264.069 173.394C264.841 172.312 266.154 171.66 267.405 171.709Z" fill="#3F3F3F"/>
<path d="M274.091 183.898C274.091 183.898 274.557 182.102 272.557 182.164C270.558 182.225 270.509 186.075 270.509 186.075L274.091 183.898Z" fill="#FFC9B6"/>
<path d="M272.865 177.033C272.865 177.033 274.325 182.015 281.648 181.879C288.984 181.744 286.666 175.201 282.765 173.405C278.864 171.609 275.907 172.126 275.907 172.126L272.853 177.021L272.865 177.033Z" fill="#DB7B1B"/>
<path d="M281.207 176.972C283.673 172.089 278.692 165.348 271.405 165.767C267.418 166 263.333 169.211 263.247 175.311C262.744 177.476 275.085 184.352 281.207 176.972Z" fill="#F49020"/>
<path d="M275.208 167.18C275.159 167.647 274.411 167.955 273.552 167.856C272.681 167.758 272.031 167.303 272.08 166.835C272.129 166.368 272.877 166.06 273.736 166.159C274.607 166.257 275.257 166.712 275.208 167.18Z" fill="#DB7B1B"/>
<path d="M309.397 202.457C309.397 202.457 309.348 202.518 309.336 202.543C309.299 202.605 309.287 202.678 309.263 202.752C309.25 202.789 309.226 202.826 309.213 202.863L308.502 202.211L309.397 202.457Z" fill="#2B2B2B"/>
<path d="M309.163 202.741C309.163 202.63 309.237 202.52 309.31 202.458C309.359 202.434 309.421 202.458 309.396 202.458L310.905 202.901L310.414 203.983L309.2 202.864C309.175 202.839 309.163 202.803 309.163 202.753V202.741Z" fill="#DBD1D1"/>
<path d="M310.317 203.688C310.317 203.392 310.501 203.048 310.722 202.925C310.82 202.876 310.906 202.863 310.968 202.9L316.807 206.246L316.267 207.328L310.477 204.02C310.391 203.97 310.33 203.86 310.33 203.688H310.317Z" fill="#2B2B2B"/>
<path d="M316.562 206.269C316.66 206.22 316.746 206.207 316.807 206.244L318.892 207.425C318.819 207.388 318.708 207.388 318.61 207.45C318.389 207.573 318.205 207.917 318.205 208.212C318.205 208.347 318.242 208.446 318.304 208.507L316.243 207.327C316.181 207.265 316.145 207.167 316.145 207.031C316.145 206.736 316.329 206.392 316.549 206.269H316.562Z" fill="#D1D1D1"/>
<path d="M318.218 208.201C318.218 207.906 318.402 207.562 318.623 207.439C318.721 207.389 318.819 207.377 318.893 207.414L319.15 207.562L318.623 208.669L318.328 208.496C318.267 208.435 318.23 208.337 318.23 208.201H318.218Z" fill="#2B2B2B"/>
<path d="M318.476 208.347C318.476 208.642 318.66 208.778 318.88 208.655C319.101 208.532 319.285 208.187 319.285 207.892C319.285 207.597 319.101 207.461 318.88 207.584C318.66 207.707 318.476 208.052 318.476 208.347Z" fill="#513736"/>
<path d="M318.609 208.325C318.609 208.091 318.757 207.821 318.928 207.722C319.002 207.673 319.076 207.673 319.125 207.698C319.125 207.698 319.149 207.698 319.161 207.71L319.959 208.177L319.554 209.063L318.72 208.571C318.658 208.534 318.622 208.448 318.622 208.325H318.609Z" fill="#DBD1D1"/>
<path d="M319.432 208.804C319.432 209.038 319.579 209.148 319.751 209.038C319.922 208.939 320.07 208.669 320.07 208.435C320.07 208.201 319.922 208.091 319.751 208.201C319.579 208.3 319.432 208.57 319.432 208.804Z" fill="#E8E8E8"/>
<path d="M317.702 203.711C317.702 203.711 317.653 203.772 317.641 203.797C317.604 203.858 317.592 203.932 317.567 204.006C317.555 204.043 317.53 204.08 317.518 204.117L316.807 203.465L317.702 203.711Z" fill="#2B2B2B"/>
<path d="M317.469 203.995C317.469 203.884 317.542 203.774 317.616 203.712C317.665 203.688 317.726 203.712 317.702 203.712L319.211 204.155L318.72 205.237L317.506 204.118C317.481 204.093 317.469 204.057 317.469 204.007V203.995Z" fill="#DBD1D1"/>
<path d="M318.623 204.941C318.623 204.646 318.807 204.302 319.028 204.179C319.126 204.13 319.212 204.117 319.273 204.154L325.112 207.5L324.573 208.582L318.782 205.274C318.697 205.224 318.635 205.114 318.635 204.941H318.623Z" fill="#2B2B2B"/>
<path d="M324.854 207.523C324.952 207.473 325.038 207.461 325.099 207.498L327.184 208.679C327.111 208.642 327 208.642 326.902 208.703C326.681 208.826 326.497 209.171 326.497 209.466C326.497 209.601 326.534 209.7 326.596 209.761L324.535 208.58C324.473 208.519 324.437 208.421 324.437 208.285C324.437 207.99 324.621 207.646 324.841 207.523H324.854Z" fill="#F49020"/>
<path d="M326.51 209.469C326.51 209.174 326.694 208.829 326.915 208.706C327.013 208.657 327.111 208.645 327.184 208.682L327.442 208.829L326.915 209.936L326.62 209.764C326.559 209.703 326.522 209.604 326.522 209.469H326.51Z" fill="#2B2B2B"/>
<path d="M326.78 209.617C326.78 209.912 326.964 210.047 327.185 209.924C327.406 209.801 327.59 209.457 327.59 209.161C327.59 208.866 327.406 208.731 327.185 208.854C326.964 208.977 326.78 209.321 326.78 209.617Z" fill="#513736"/>
<path d="M326.903 209.579C326.903 209.346 327.051 209.075 327.222 208.977C327.296 208.927 327.369 208.927 327.419 208.952C327.419 208.952 327.443 208.952 327.455 208.964L328.253 209.432L327.848 210.317L327.014 209.825C326.952 209.788 326.916 209.702 326.916 209.579H326.903Z" fill="#DBD1D1"/>
<path d="M327.726 210.072C327.726 210.305 327.873 210.416 328.045 210.305C328.216 210.195 328.364 209.936 328.364 209.703C328.364 209.469 328.216 209.358 328.045 209.469C327.873 209.567 327.726 209.838 327.726 210.072Z" fill="#E8E8E8"/>
<path d="M418.087 250.02L310.293 182.665L314.832 179.922L420.54 246.207C421.215 246.625 421.252 247.584 420.626 248.064L418.087 250.02Z" fill="#F9F0DC"/>
</svg>
